#N canvas 981 174 890 656 10;
#X declare -lib mrpeach;
#X obj 316 197 readsf~;
#X obj 287 407 lop~;
#X obj 374 401 lop~;
#X msg 265 47 open Panadero.wav \, 1;
#X msg 441 10 0;
#X obj 272 5 bng 15 250 50 0 empty empty empty 17 7 0 10 -262144 -1
-1;
#X obj 267 499 dac~;
#X obj 400 355 hsl 128 15 20000 45 1 0 empty empty empty -2 -8 0 10
-262144 -1 -1 8415 1;
#X obj 478 98 cycle~ 0.5;
#X obj 489 169 /~ 2;
#X obj 489 145 +~ 1;
#X obj 488 207 *~ 7;
#X obj 150 302 delwrite~ modDelay 1000;
#X obj 393 237 vd~ modDelay;
#X floatatom 575 196 5 0 0 0 - - -;
#X obj 669 25 import mrpeach;
#X obj 669 75 udpreceive 12001;
#X obj 669 112 unpackOSC;
#X obj 620 268 unpack f f;
#X obj 755 314 print;
#X obj 644 201 routeOSC /test;
#X connect 0 0 1 0;
#X connect 0 0 2 0;
#X connect 0 0 12 0;
#X connect 0 1 5 0;
#X connect 1 0 6 0;
#X connect 2 0 6 1;
#X connect 3 0 0 0;
#X connect 4 0 0 0;
#X connect 5 0 3 0;
#X connect 7 0 1 1;
#X connect 7 0 2 1;
#X connect 8 0 10 0;
#X connect 9 0 11 0;
#X connect 10 0 9 0;
#X connect 11 0 13 0;
#X connect 13 0 1 0;
#X connect 13 0 2 0;
#X connect 14 0 11 1;
#X connect 16 0 17 0;
#X connect 17 0 20 0;
#X connect 18 0 14 0;
#X connect 20 0 18 0;
#X connect 20 0 19 0;
